<svg width="30" height="30" viewBox="0 0 30 30" fill="none" xmlns="http://www.w3.org/2000/svg">
<path opacity="0.2" fill-rule="evenodd" clip-rule="evenodd" d="M15 23.75C16.1491 23.75 17.2869 23.5237 18.3485 23.0839C19.4101 22.6442 20.3747 21.9997 21.1872 21.1872C21.9997 20.3747 22.6442 19.4101 23.0839 18.3485C23.5237 17.2869 23.75 16.1491 23.75 15C23.75 13.8509 23.5237 12.7131 23.0839 11.6515C22.6442 10.5899 21.9997 9.62533 21.1872 8.81282C20.3747 8.0003 19.4101 7.35578 18.3485 6.91605C17.2869 6.47633 16.1491 6.25 15 6.25C12.6794 6.25 10.4538 7.17187 8.81282 8.81282C7.17187 10.4538 6.25 12.6794 6.25 15C6.25 17.3206 7.17187 19.5462 8.81282 21.1872C10.4538 22.8281 12.6794 23.75 15 23.75V23.75ZM15 27.5C21.9037 27.5 27.5 21.9037 27.5 15C27.5 8.09625 21.9037 2.5 15 2.5C8.09625 2.5 2.5 8.09625 2.5 15C2.5 21.9037 8.09625 27.5 15 27.5Z" fill="white"/>
<path d="M2.5 15C2.5 8.09625 8.09625 2.5 15 2.5V6.25C12.6794 6.25 10.4538 7.17187 8.81282 8.81282C7.17187 10.4538 6.25 12.6794 6.25 15H2.5Z" fill="white"/>
</svg>
